<?xml version="1.0" encoding="utf-8"?>
<!-- Generator: Adobe Illustrator 27.1.1, SVG Export Plug-In . SVG Version: 6.00 Build 0)  -->
<svg version="1.1" xmlns="http://www.w3.org/2000/svg" xmlns:xlink="http://www.w3.org/1999/xlink" x="0px" y="0px"
	 viewBox="0 0 1133.86 1133.86" style="enable-background:new 0 0 1133.86 1133.86;" xml:space="preserve">
<style type="text/css">
	.st0{display:none;}
	.st1{display:inline;fill:none;stroke:#000000;stroke-width:75;stroke-miterlimit:10;}
	.st2{fill:none;stroke:#000000;stroke-width:70;stroke-linecap:round;stroke-linejoin:round;stroke-miterlimit:10;}
	.st3{fill:none;stroke:#000000;stroke-width:71;stroke-linecap:round;stroke-linejoin:round;stroke-miterlimit:10;}
	.st4{display:inline;}
	.st5{fill:none;stroke:#000000;stroke-width:75;stroke-miterlimit:10;}
	.st6{stroke:#000000;stroke-width:75;stroke-linecap:round;stroke-linejoin:round;stroke-miterlimit:10;}
</style>
<g id="Layer_1" class="st0">
	<path class="st1" d="M606.87,88.33l451.6,451.6c36.4,36.4,10.62,98.63-40.85,98.63h-15.36c-31.91,0-57.78,25.87-57.78,57.78v308.34
		c0,31.91-25.87,57.78-57.78,57.78H757.13c-31.91,0-57.78-25.87-57.78-57.78V792.49c0-31.91-25.87-57.78-57.78-57.78h-75.64h-73.26
		c-31.91,0-57.78,25.87-57.78,57.78v212.18c0,31.91-25.87,57.78-57.78,57.78H247.55c-31.91,0-57.78-25.87-57.78-57.78V696.34
		c0-31.91-25.87-57.78-57.78-57.78h-15.76c-51.42,0-77.22-62.12-40.94-98.55l449.78-451.6C547.63,65.77,584.28,65.74,606.87,88.33z"
		/>
</g>
<g id="Layer_2">
	<g>
		<polyline class="st3" points="142.67,454.76 256.83,153.34 880.77,153.34 1004.31,454.76 		"/>
		<path d="M1056.46,439.51H77.4c-36.91,0-64.71,33.58-57.82,69.84l94.93,499.98c5.27,27.78,29.55,47.88,57.82,47.88h789.19
			c28.27,0,52.55-20.1,57.82-47.88l94.93-499.98C1121.17,473.08,1093.37,439.51,1056.46,439.51z M287.94,961.76
			c0,18.06-14.78,32.84-32.84,32.84h0c-18.06,0-32.84-14.78-32.84-32.84l0-411.27c0-18.06,14.78-32.84,32.84-32.84h0
			c18.06,0,32.84,14.78,32.84,32.84L287.94,961.76z M408.99,961.76c0,18.06-14.78,32.84-32.84,32.84h0
			c-18.06,0-32.84-14.78-32.84-32.84l0-411.27c0-18.06,14.78-32.84,32.84-32.84h0c18.06,0,32.84,14.78,32.84,32.84L408.99,961.76z
			 M539.24,961.76c0,18.06-14.78,32.84-32.84,32.84h0c-18.06,0-32.84-14.78-32.84-32.84l0-411.27c0-18.06,14.78-32.84,32.84-32.84
			c18.06,0,32.84,14.78,32.84,32.84L539.24,961.76z M660.29,961.76c0,18.06-14.78,32.84-32.84,32.84h0
			c-18.06,0-32.84-14.78-32.84-32.84l0-411.27c0-18.06,14.78-32.84,32.84-32.84h0c18.06,0,32.84,14.78,32.84,32.84L660.29,961.76z
			 M782.64,961.76c0,18.06-14.78,32.84-32.84,32.84h0c-18.06,0-32.84-14.78-32.84-32.84l0-411.27c0-18.06,14.78-32.84,32.84-32.84
			s32.84,14.78,32.84,32.84L782.64,961.76z M903.69,961.76c0,18.06-14.78,32.84-32.84,32.84h0c-18.06,0-32.84-14.78-32.84-32.84
			l0-411.27c0-18.06,14.78-32.84,32.84-32.84h0c18.06,0,32.84,14.78,32.84,32.84L903.69,961.76z"/>
	</g>
</g>
<g id="Layer_3" class="st0">
	<g class="st4">
		<circle class="st5" cx="566.93" cy="329.15" r="224.55"/>
		<path class="st5" d="M195.64,1029.24c-35.34,0-58.94-36.58-44.2-68.7c72.19-157.31,231.08-266.56,415.49-266.56
			c184.42,0,343.32,109.26,415.5,266.58c14.74,32.12-8.87,68.7-44.21,68.69L195.64,1029.24z"/>
	</g>
</g>
<g id="Layer_4" class="st0">
	<g class="st4">
		<polyline class="st6" points="81.43,1052.25 124.82,820.09 587.79,357.12 775.65,546.67 313.53,1008.79 81.43,1052.25 		"/>
		<path class="st6" d="M694.89,251.33l188.05,188.05l160.46-160.46c0,0,20.3-18.62,0-38.93c-20.3-20.3-152.07-152.07-152.07-152.07
			s-16.45-14.21-30.66,0S694.89,251.33,694.89,251.33z"/>
	</g>
</g>
</svg>
