<?xml version="1.0" standalone="no"?>
<!DOCTYPE svg PUBLIC "-//W3C//DTD SVG 20010904//EN"
 "http://www.w3.org/TR/2001/REC-SVG-20010904/DTD/svg10.dtd">
<svg version="1.0" xmlns="http://www.w3.org/2000/svg"
 width="1000.000000pt" height="1000.000000pt" viewBox="0 0 1000.000000 1000.000000"
 preserveAspectRatio="xMidYMid meet">
<metadata>
Created by potrace 1.14, written by Peter Selinger 2001-2017
</metadata>
<g transform="translate(0.000000,1000.000000) scale(0.100000,-0.100000)"
fill="#000000" stroke="none">
<path d="M8668 7504 c-2 -1 -48 -5 -103 -9 -55 -3 -111 -8 -125 -10 -14 -2
-70 -7 -125 -11 -55 -4 -113 -8 -130 -9 -16 -2 -68 -6 -115 -9 -47 -4 -105 -9
-130 -11 -25 -3 -74 -7 -110 -10 -36 -3 -90 -7 -120 -10 -30 -2 -89 -7 -130
-10 -86 -6 -175 -14 -240 -20 -25 -2 -79 -7 -120 -10 -41 -4 -95 -8 -120 -10
-25 -2 -83 -7 -130 -10 -47 -3 -107 -8 -135 -11 -27 -3 -72 -7 -100 -9 -27 -2
-84 -6 -125 -9 -41 -4 -102 -9 -135 -11 -33 -3 -85 -7 -115 -10 -30 -3 -81 -8
-113 -10 -55 -4 -141 -11 -252 -20 -27 -2 -86 -7 -130 -10 -44 -3 -98 -8 -120
-10 -22 -2 -76 -7 -120 -11 -44 -3 -96 -8 -115 -9 -19 -2 -80 -7 -135 -11 -55
-3 -107 -7 -115 -9 -9 -2 -60 -6 -115 -10 -55 -4 -116 -9 -135 -11 -19 -2 -71
-7 -115 -10 -44 -3 -98 -7 -120 -9 -146 -11 -206 -16 -250 -20 -145 -12 -195
-16 -240 -20 -27 -3 -81 -7 -120 -10 -38 -3 -92 -8 -120 -10 -27 -3 -84 -7
-125 -10 -41 -3 -95 -7 -120 -10 -25 -2 -76 -6 -115 -10 -133 -10 -190 -15
-245 -20 -84 -7 -178 -15 -250 -20 -36 -3 -92 -8 -125 -10 -89 -8 -150 -13
-245 -20 -47 -3 -101 -8 -120 -10 -19 -2 -71 -6 -115 -10 -44 -3 -105 -8 -135
-11 -30 -2 -82 -6 -115 -9 -33 -2 -91 -7 -130 -10 -67 -5 -99 -8 -225 -20 -30
-3 -95 -7 -145 -10 -49 -4 -101 -8 -115 -10 -14 -2 -68 -7 -120 -10 -52 -4
-106 -8 -120 -10 -14 -2 -65 -6 -115 -10 -49 -3 -106 -8 -125 -10 -19 -2 -78
-7 -130 -11 -52 -3 -104 -8 -115 -9 -11 -1 -25 -3 -31 -4 -5 0 -11 -20 -12
-43 -14 -247 -135 -450 -322 -541 -83 -41 -172 -66 -237 -69 -45 -1 -56 -12
-24 -23 10 -3 40 -28 65 -55 67 -72 62 -120 -19 -192 -16 -15 -34 -28 -38 -28
-17 0 6 -21 37 -34 107 -45 113 -137 14 -211 l-40 -30 31 -9 c41 -12 91 -56
96 -85 6 -34 -16 -80 -63 -129 l-41 -43 27 -10 c113 -39 124 -92 41 -183 l-49
-54 30 -12 c44 -18 90 -75 90 -111 0 -35 -40 -102 -76 -125 l-25 -17 39 -21
c54 -29 77 -48 85 -70 12 -31 -11 -79 -53 -110 -22 -17 -40 -33 -40 -36 0 -4
18 -15 39 -25 50 -22 90 -64 93 -96 3 -35 -27 -80 -77 -115 l-44 -31 39 -17
c49 -21 90 -69 90 -104 0 -33 -26 -76 -70 -119 l-32 -32 48 -23 c103 -47 110
-99 25 -175 -20 -18 -39 -33 -43 -33 -18 0 -6 -16 23 -29 62 -27 103 -85 94
-131 -7 -34 -44 -88 -77 -112 l-31 -21 51 -23 c89 -39 94 -93 15 -169 -43 -42
-44 -45 -21 -45 45 0 86 -20 97 -48 18 -43 1 -95 -58 -182 l-38 -55 96 -1
c331 -5 536 -183 606 -526 3 -19 10 -26 23 -24 9 2 64 7 122 11 58 4 112 9
120 10 8 2 60 6 115 10 55 3 116 8 135 10 19 2 71 6 115 10 44 3 100 8 125 10
25 3 74 7 110 10 36 3 94 7 130 10 36 3 92 8 125 10 54 4 91 6 250 20 28 2 79
7 115 9 100 8 201 17 245 21 22 2 76 6 120 10 44 3 100 8 125 10 25 3 77 7
115 10 39 3 95 7 125 10 30 2 85 6 123 9 37 3 97 8 135 11 37 3 85 8 107 10
63 6 195 17 255 21 83 5 200 14 245 19 22 3 76 7 120 10 44 3 98 7 120 10 22
2 69 7 105 9 36 3 94 8 130 11 36 3 90 7 120 10 98 7 193 15 260 20 63 6 82 7
235 20 39 3 95 8 125 10 30 3 83 7 118 10 34 3 88 7 120 10 31 3 89 7 127 10
39 3 90 7 115 9 53 5 185 17 250 21 77 6 275 22 370 30 97 8 173 14 250 20 41
3 91 8 110 10 19 2 73 7 120 10 47 3 101 7 120 9 19 3 76 8 125 11 50 3 106 8
125 10 19 1 73 6 120 9 47 4 105 9 130 11 25 2 77 7 115 10 39 3 93 8 120 10
28 2 79 7 115 10 36 2 94 7 130 10 36 3 90 7 120 10 173 13 258 20 365 30 28
2 84 7 125 10 107 8 173 15 176 18 2 2 6 34 9 72 17 189 83 334 200 438 69 61
242 138 338 150 35 5 64 17 40 17 -18 0 -74 61 -89 96 -19 46 -5 100 36 139
16 16 30 31 30 35 0 3 -15 11 -33 18 -37 13 -70 61 -65 95 4 29 46 98 70 115
18 13 16 16 -25 47 -78 60 -83 130 -14 196 16 16 28 30 26 32 -2 2 -21 14 -41
27 -21 14 -43 37 -49 52 -11 27 -5 81 12 102 5 6 21 26 36 45 26 32 26 34 7
44 -10 6 -34 25 -51 43 -48 47 -46 91 7 148 l40 43 -40 32 c-22 18 -46 44 -54
59 -15 29 -13 94 3 114 6 7 24 29 40 48 l29 36 -39 22 c-44 25 -68 65 -63 102
2 14 22 42 45 63 22 22 39 40 37 41 -2 1 -17 12 -34 24 -42 29 -68 85 -61 129
4 19 22 54 42 78 l36 44 -28 15 c-79 41 -100 110 -53 175 16 22 36 44 45 48
14 8 10 14 -23 35 -73 49 -79 121 -17 202 30 40 32 46 16 51 -10 3 -34 22 -55
42 -51 51 -50 89 4 143 l41 41 -23 19 c-13 11 -26 19 -30 20 -12 0 -46 64 -51
96 -6 39 14 96 51 148 l30 41 -89 -3 c-102 -4 -171 12 -262 60 -62 33 -174
138 -211 197 -48 77 -86 154 -111 224 -23 63 -41 86 -57 71z"/>
</g>
</svg>
